<?xml version="1.0" encoding="UTF-8" standalone="no"?>
<!-- Created with Inkscape (http://www.inkscape.org/) -->

<svg
   width="14"
   height="14"
   viewBox="0 0 3.7041666 3.7041666"
   version="1.1"
   id="svg1"
   xml:space="preserve"
   inkscape:version="1.3.2 (091e20e, 2023-11-25, custom)"
   sodipodi:docname="no-profile.svg"
   xmlns:inkscape="http://www.inkscape.org/namespaces/inkscape"
   xmlns:sodipodi="http://sodipodi.sourceforge.net/DTD/sodipodi-0.dtd"
   xmlns="http://www.w3.org/2000/svg"
   xmlns:svg="http://www.w3.org/2000/svg"><sodipodi:namedview
     id="namedview1"
     pagecolor="#000000"
     bordercolor="#000000"
     borderopacity="0.25"
     inkscape:showpageshadow="2"
     inkscape:pageopacity="0.0"
     inkscape:pagecheckerboard="true"
     inkscape:deskcolor="#d1d1d1"
     inkscape:document-units="mm"
     inkscape:zoom="12.074463"
     inkscape:cx="9.5656426"
     inkscape:cy="11.139211"
     inkscape:window-width="1400"
     inkscape:window-height="837"
     inkscape:window-x="-8"
     inkscape:window-y="-8"
     inkscape:window-maximized="1"
     inkscape:current-layer="layer1" /><defs
     id="defs1" /><g
     inkscape:label="Слой 1"
     inkscape:groupmode="layer"
     id="layer1"><g
       style="fill:none"
       id="g1"
       transform="matrix(0.11995993,0,0,0.11995993,1.2522837,0.49047165)"><path
         d="M 5,9 C 7.20914,9 9,7.20914 9,5 9,2.79086 7.20914,1 5,1 2.79086,1 1,2.79086 1,5 1,7.20914 2.79086,9 5,9 Z"
         stroke="#5db3e8"
         stroke-width="2"
         stroke-linecap="round"
         stroke-linejoin="round"
         id="path1" /></g><g
       style="fill:none"
       id="g2"
       transform="matrix(0.16910684,0,0,0.16910684,0.66833545,1.8889164)"><path
         d="M 1,7 V 5 C 1,3.93913 1.42143,2.92172 2.17157,2.17157 2.92172,1.42143 3.93913,1 5,1 h 4 c 1.0609,0 2.0783,0.42143 2.8284,1.17157 C 12.5786,2.92172 13,3.93913 13,5 v 2"
         stroke="#5db3e8"
         stroke-width="2"
         stroke-linecap="round"
         stroke-linejoin="round"
         id="path1-5" /></g></g></svg>
