<svg width="16" height="17" viewBox="0 0 16 17" fill="none" xmlns="http://www.w3.org/2000/svg">
<g clip-path="url(#clip0_4613_17978)">
<path d="M2 14.8398L3.1 12.3065C2.25844 11.1119 1.88178 9.65118 2.0407 8.19856C2.19961 6.74594 2.88319 5.40125 3.96314 4.41684C5.04309 3.43242 6.44517 2.87597 7.90625 2.85189C9.36734 2.82781 10.787 3.33778 11.8988 4.28607C13.0106 5.23437 13.7381 6.55581 13.9448 8.0024C14.1515 9.449 13.8231 10.9213 13.0214 12.143C12.2197 13.3647 10.9996 14.2518 9.59026 14.6379C8.1809 15.024 6.67908 14.8824 5.36667 14.2398L2 14.8398" stroke="white" stroke-width="1.5" stroke-linecap="round" stroke-linejoin="round"/>
<path d="M6 7.50635C6 7.59475 6.03512 7.67954 6.09763 7.74205C6.16014 7.80456 6.24493 7.83968 6.33333 7.83968C6.42174 7.83968 6.50652 7.80456 6.56904 7.74205C6.63155 7.67954 6.66667 7.59475 6.66667 7.50635V6.83968C6.66667 6.75128 6.63155 6.66649 6.56904 6.60398C6.50652 6.54147 6.42174 6.50635 6.33333 6.50635C6.24493 6.50635 6.16014 6.54147 6.09763 6.60398C6.03512 6.66649 6 6.75128 6 6.83968V7.50635ZM6 7.50635C6 8.3904 6.35119 9.23825 6.97631 9.86337C7.60143 10.4885 8.44928 10.8397 9.33333 10.8397H10C10.0884 10.8397 10.1732 10.8046 10.2357 10.7421C10.2982 10.6795 10.3333 10.5948 10.3333 10.5063C10.3333 10.4179 10.2982 10.3332 10.2357 10.2706C10.1732 10.2081 10.0884 10.173 10 10.173H9.33333C9.24493 10.173 9.16014 10.2081 9.09763 10.2706C9.03512 10.3332 9 10.4179 9 10.5063C9 10.5948 9.03512 10.6795 9.09763 10.7421C9.16014 10.8046 9.24493 10.8397 9.33333 10.8397" stroke="white" stroke-width="1.5" stroke-linecap="round" stroke-linejoin="round"/>
</g>
<defs>
<clipPath id="clip0_4613_17978">
<rect width="16" height="16" fill="white" transform="translate(0 0.839844)"/>
</clipPath>
</defs>
</svg>
